<svg xmlns="http://www.w3.org/2000/svg" xml:space="preserve" style="enable-background:new 0 0 1536.59 615.53" viewBox="0 0 1536.59 615.53"><path d="M1017.95 410.29c0 31.04-.12 62.08.11 93.12.04 5.78-1.58 10.15-5.72 14.16-14.4 13.98-28.63 28.13-42.78 42.36-2.88 2.9-5.92 4.1-9.98 4.09-26.34-.12-52.69-.14-79.03.02-4.79.03-8.35-1.59-11.61-4.94-13.35-13.7-26.73-27.36-40.29-40.85-4.33-4.3-5.85-9.08-5.84-15.13.11-62.71.04-125.42-.17-188.13-.02-4.8 1.41-8.44 4.68-11.71 14.4-14.42 28.81-28.83 43.09-43.37 3.19-3.25 6.92-3.9 11.12-3.9 26.03-.01 52.06.03 78.09-.17 4.78-.04 8.4 1.54 11.68 4.86 13.65 13.84 27.3 27.69 41.17 41.3 4.15 4.08 5.58 8.51 5.54 14.23-.2 31.35-.1 62.71-.1 94.07.01-.01.02-.01.04-.01zm-139.52.08h.11c0 29.44.13 58.87-.11 88.31-.05 6.4 1.34 10.2 8.6 10.16 22.24-.14 44.47-.1 66.71-.05 5.31.01 7.97-1.87 7.95-7.72-.19-60.12-.26-120.25-.22-180.37 0-6.88-2.79-9.28-9.63-9.19-20.98.29-41.98.44-62.95-.13-8.37-.23-10.76 2.5-10.64 10.69.43 29.42.18 58.86.18 88.3zm451.78 22.3c.01 38.88.03 77.76-.01 116.64-.01 12.51-2.52 15.01-14.74 15.02-9.09.01-18.19.03-27.28-.03-12.34-.09-14.28-2.01-14.3-14.16-.13-74.62-.24-149.24-.34-223.86-.02-14.66.03-14.67-15.06-14.69-19.44-.03-38.89.27-58.33-.2-8.22-.2-10.78 2.54-10.75 10.81.22 75.56.05 151.13 0 226.69-.01 13.67-1.49 15.23-14.96 15.34-8.78.07-17.56.17-26.34.11-11.63-.08-14.56-2.91-14.65-14.38-.14-19.75-.19-39.51-.17-59.26.04-57.38.23-114.76.05-172.13-.02-7.49 2.13-13.12 7.47-18.27 13.54-13.05 26.86-26.35 40.05-39.76 3.41-3.47 7.16-4.62 11.77-4.6 26.34.08 52.68.15 79.02.04 4.73-.02 8.39 1.46 11.71 4.79 13.94 14 27.95 27.92 42.06 41.74 3.63 3.56 4.92 7.52 4.9 12.59-.18 39.18-.11 78.38-.1 117.57zm-673.7-22.19c0 29.15.26 58.31-.17 87.46-.12 8.04 2.83 10.42 10.36 10.38 21-.13 42.01.07 63.01.49 6.94.14 9.47-2.48 9.26-9.39-.38-12.53-.22-25.08-.1-37.61.1-10.32 3.24-13.46 13.55-13.59 10.34-.13 20.69.09 31.04-.04 8.77-.11 12.45 4.3 12.38 12.77-.12 14.42-.28 28.85.07 43.26.13 5.52-1.67 9.54-5.48 13.29-14.32 14.05-28.56 28.18-42.66 42.47-2.92 2.96-6.02 4-10.01 4.01-26.65.03-53.3.14-79.95.35-4.39.03-7.75-1.38-10.83-4.53-13.59-13.89-27.34-27.63-41.03-41.43-3.37-3.4-5.76-6.98-5.77-12.27-.11-64.26-.4-128.52-.74-192.78-.02-4.17 1.71-7.06 4.51-9.84 14.23-14.14 28.45-28.3 42.49-42.63 3.37-3.44 7.13-4.7 11.75-4.68 26.65.09 53.3.13 79.95.06 4.35-.01 7.69 1.24 10.83 4.42 13.66 13.82 27.48 27.5 41.4 41.05 4.11 4 5.86 8.37 5.7 14.18-.4 14.41-.13 28.84-.31 43.26-.13 10.14-3.45 13.36-13.71 13.34-10.34-.02-20.69-.37-31.03-.45-7.65-.06-11.69-3.6-11.71-11.41-.05-12.85-.38-25.71-.09-38.55.16-7.31-1.78-10.85-10.03-10.67-21 .46-42.01.33-63.01.01-7.25-.11-9.9 2.25-9.82 9.76.36 29.75.15 59.53.15 89.31zm447.94 47.39c0 30.67.03 61.34-.02 92.01-.02 11.84-2.57 14.36-14.33 14.35-10.33-.01-20.66-.34-30.99-.23-7.82.08-11.58-3.47-11.55-11.29.18-49.14.37-98.27.39-147.41 0-4.29 2.09-7.1 4.73-9.76 12.56-12.67 25.15-25.31 37.87-37.81 2.56-2.51 5.18-5.76 9.72-3.34 4 2.13 4.36 5.64 4.35 9.58-.05 31.3-.03 62.6-.03 93.89-.04.01-.09.01-.14.01zm-28.24-147.21h-16.92c-6.99 0-10.43-3.84-10.58-10.48-.24-10.96-.23-21.93-.13-32.89.07-7.09 3.79-11.24 10.97-11.35 11.59-.18 23.19-.17 34.77.13 6.76.18 10.15 4.27 10.16 10.97.02 10.65-.22 21.3-.09 31.95.1 8.44-4.19 11.9-12.21 11.79-5.33-.07-10.65-.01-15.98-.01.01-.04.01-.07.01-.11z" style="fill:#fff"/><path d="M558.45 362.68c-16.21-16.22-31.89-33-48.57-48.72-7.7-7.25-7.11-11.69.31-18.49 15.36-14.08 29.81-29.15 44.94-43.49 7.64-7.23 11.44-15.18 11.13-26.11-.65-22.97.06-45.97-.02-68.95-.04-12.42-10.1-22.51-22.52-22.74-16.15-.3-32.32-.51-48.47-.09-12.33.32-18.4-3.98-17.7-17.27.77-14.56-.1-29.19.24-43.78.32-13.55-5.96-20.41-19.39-20.82-55.92-1.69-111.85-.97-167.77-.55H223.4c-9.44 0-17.09 7.65-17.09 17.09v478.12c0 9.44 7.65 17.09 17.09 17.09h59.42c22.9.01 45.79 0 68.69 0v-.31c34.92 0 69.84.17 104.76-.08 16.36-.11 21.49-5.37 21.76-21.6.26-15.11.53-30.26-.17-45.35-.59-12.69 4.34-18.28 17.17-17.98 16.15.37 32.32.17 48.47-.27 12.41-.34 22.36-10.44 22.53-22.85.33-24.55.04-49.1.7-73.64.2-8.13-2.89-13.82-8.28-19.21zm-90.67 59.51c-12.4 12.14-24.81 24.27-37.21 36.41-2.25 2.67-6.42 6.98-12.78 10.05-8.48 4.09-16.33 3.76-19.4 3.73-30.13-.32-60.27-.36-90.41-.29a9.093 9.093 0 0 1-9.12-9.1v-99.42c0-5.03 4.07-9.1 9.1-9.1 32.93-.02 65.86-.07 98.78-.21 2.63-.01 9.84-.66 17.03 3.31 3.92 2.17 6.58 4.98 8.27 7.12 11.89 11.18 23.78 22.37 35.67 33.55.96 1.15 4.43 5.61 4.35 12.23-.08 6.29-3.3 10.51-4.28 11.72zm4.89-212.38c-1.7 1.24-11.11 10.29-29.91 28.38-10.27 9.88-10.2 9.84-15.24 14.91-5.97 6-14.06 9.39-22.52 9.34-32.41-.19-64.81-.19-97.22-.12a8.909 8.909 0 0 1-8.93-8.91v-100.4c0-4.93 3.99-8.91 8.92-8.91 43.24.06 96.72-.06 96.72-.06 2.8.22 9.35.69 16.64 4.38 4.41 2.24 7.63 4.92 9.72 6.91l36.67 30.28c2.28 1.77 10.86 8.77 9.33 18.78-.5 3.22-3.42 4.87-4.18 5.42z" style="fill:#c5fa6f"/></svg>