<?xml version="1.0" encoding="utf-8"?>
<!-- Generator: Adobe Illustrator 27.0.0, SVG Export Plug-In . SVG Version: 6.00 Build 0)  -->
<svg version="1.1" id="Layer_1" xmlns="http://www.w3.org/2000/svg" xmlns:xlink="http://www.w3.org/1999/xlink" x="0px" y="0px"
	 viewBox="0 0 246.34 350.5" style="enable-background:new 0 0 246.34 350.5;" xml:space="preserve">
<style type="text/css">
	.st0{fill:#C5FA6F;}
</style>
<path class="st0" d="M240.69,212.91c-11.08-11.09-21.8-22.56-33.2-33.3c-5.26-4.96-4.86-7.99,0.21-12.63
	c10.5-9.62,20.37-19.92,30.72-29.72c5.22-4.94,7.82-10.37,7.61-17.84c-0.45-15.7,0.04-31.42-0.02-47.13
	c-0.03-8.49-6.9-15.38-15.39-15.54c-11.04-0.2-22.09-0.35-33.13-0.06c-8.43,0.22-12.57-2.72-12.1-11.8
	c0.52-9.95-0.07-19.95,0.16-29.92c0.22-9.26-4.07-13.95-13.25-14.23C134.08-0.42,95.86,0.07,57.63,0.35H11.68
	C5.23,0.35,0,5.58,0,12.03v326.78c0,6.45,5.23,11.68,11.68,11.68h40.61c15.65,0.01,31.3,0,46.95,0c0-0.07,0-0.14,0-0.21
	c23.87,0,47.74,0.12,71.6-0.05c11.18-0.08,14.69-3.67,14.87-14.76c0.17-10.33,0.36-20.68-0.12-30.99
	c-0.4-8.67,2.96-12.49,11.74-12.29c11.04,0.25,22.09,0.12,33.13-0.18c8.48-0.23,15.28-7.13,15.4-15.62
	c0.23-16.78,0.02-33.56,0.48-50.33C246.49,220.48,244.37,216.59,240.69,212.91z M178.71,253.58c-8.48,8.29-16.96,16.59-25.43,24.88
	c-1.54,1.82-4.38,4.77-8.74,6.87c-5.79,2.8-11.16,2.57-13.26,2.55c-20.6-0.22-41.19-0.24-61.79-0.2c-3.44,0.01-6.23-2.78-6.23-6.22
	v-67.95c0-3.44,2.78-6.22,6.22-6.22c22.51-0.01,45.01-0.04,67.52-0.15c1.8-0.01,6.73-0.45,11.64,2.26c2.68,1.48,4.5,3.41,5.65,4.87
	c8.13,7.64,16.25,15.29,24.38,22.93c0.65,0.79,3.03,3.83,2.97,8.36C181.59,249.87,179.39,252.76,178.71,253.58z M182.06,108.42
	c-1.16,0.85-7.59,7.03-20.44,19.39c-7.02,6.75-6.97,6.73-10.42,10.19c-4.08,4.1-9.61,6.42-15.39,6.38
	c-22.15-0.13-44.3-0.13-66.45-0.09c-3.37,0.01-6.1-2.72-6.1-6.09V69.61c0-3.37,2.73-6.09,6.1-6.09c29.55,0.04,66.1-0.04,66.1-0.04
	c1.91,0.15,6.39,0.47,11.37,3c3.02,1.53,5.22,3.36,6.64,4.72c8.35,6.9,16.71,13.8,25.06,20.7c1.56,1.21,7.42,5.99,6.37,12.84
	C184.58,106.92,182.58,108.05,182.06,108.42z"/>
</svg>
