<?xml version="1.0" encoding="utf-8"?>
<!-- Generator: Adobe Illustrator 27.0.0, SVG Export Plug-In . SVG Version: 6.00 Build 0)  -->
<svg version="1.1" id="Layer_1" xmlns="http://www.w3.org/2000/svg" xmlns:xlink="http://www.w3.org/1999/xlink" x="0px" y="0px"
	 viewBox="0 0 430 115" style="enable-background:new 0 0 430 115;" xml:space="preserve">
<style type="text/css">
	.st0{fill-rule:evenodd;clip-rule:evenodd;fill:#110D00;}
	.st1{fill:#110D00;}
	.st2{fill:#C5FA6F;}
	.st3{fill:#858585;}
	.st4{fill-rule:evenodd;clip-rule:evenodd;fill:#858585;}
</style>
<g>
	
		<image style="overflow:visible;opacity:0.75;" width="464" height="142" xlink:href="C59B8880.png"  transform="matrix(1 0 0 1 -17.0079 -10.0079)">
	</image>
	<g>
		<g>
			<path class="st0" d="M172,43H0v72h430V43H257c-0.3,23.2-19.2,42-42.5,42S172.3,66.2,172,43z"/>
			<circle class="st1" cx="215" cy="43" r="36"/>
			<path class="st2" d="M232.1,43.7c-0.4,0.6-0.3,1,0,1.6c1.1,2.2,2.2,4.4,3,6.6c0.8,2.2,1.1,4.6,0.6,7c-1,4.2-4.9,6.6-9.6,5.9
				c-2.8-0.4-5.4-1.4-7.9-2.7c-0.9-0.5-1.8-1.4-2.7-1.4c-0.9,0-1.8,0.9-2.7,1.3c-0.1,0.1-0.2,0.1-0.3,0.2c-2.9,1.4-5.8,2.5-8.6,2.6
				c-6,0-9.5-4-8.8-9.6c0.5-3.7,1.9-7,3.8-10.1c0.4-0.6,0.4-1,0-1.6c-1.9-3.1-3.3-6.4-3.8-10.1c-0.5-4.1,1.3-7.6,4.8-8.9
				c1.6-0.6,3.3-0.7,4.9-0.5c3.6,0.4,6.8,1.9,9.9,3.8c0.6,0.3,1,0.3,1.6,0c3.1-1.8,6.3-3.3,9.9-3.8c6.1-0.8,10.5,3.5,9.7,9.6
				C235.4,37.3,234,40.6,232.1,43.7z M226,58.9c0.7,0.1,1.5,0.2,2.2,0.2c1.3-0.1,2-0.8,1.9-2.1c-0.1-1.5-0.5-3-0.9-4.5
				c-0.3-0.9-0.8-1.8-1-2.3c-2.3,2.3-4.6,4.7-6.9,7C222.4,57.9,224.1,58.6,226,58.9L226,58.9z M200.9,57.3c0.1,1.1,0.8,1.7,2,1.7
				c1.2,0,2.4-0.2,3.5-0.5c1.3-0.4,2.5-1,3.4-1.3c-2.3-2.4-4.6-4.7-7-7.1C201.9,52.2,200.7,54.6,200.9,57.3L200.9,57.3z M203.1,29.9
				c-1.6,0-2.3,0.7-2.3,2.3c0,2.5,1.1,4.8,2,6.6c2.3-2.3,4.6-4.7,6.9-7C208,30.9,205.7,29.9,203.1,29.9L203.1,29.9z M215.9,35.8
				c-0.2-0.1-0.7-0.1-0.8,0c-3.1,2.4-5.9,5.2-8.3,8.3c-0.1,0.2-0.1,0.6,0,0.8c2.4,3.1,5.2,5.9,8.3,8.3c0.2,0.1,0.7,0.1,0.8,0
				c3.2-2.5,6.1-5.4,8.6-8.7C222,41.2,219.1,38.3,215.9,35.8L215.9,35.8z M227.8,29.9c-2.6,0-4.8,1-6.6,1.9c2.3,2.3,4.6,4.7,6.9,7
				c0.9-1.8,1.9-4,2-6.6C230.1,30.6,229.4,29.9,227.8,29.9L227.8,29.9z"/>
		</g>
	</g>
</g>
<path class="st3" d="M55.9,71.5c-0.2-0.1-0.4-0.1-0.5,0l-9,8.6c-0.1,0.1-0.1,0.2-0.1,0.3l0,8.1c0,0.9,0.7,1.6,1.6,1.6h4.7
	c0.4,0,0.8-0.4,0.8-0.8v-6.7c0-0.2,0.2-0.4,0.4-0.4h3.9c0.2,0,0.4,0.2,0.4,0.4v6.7c0,0.4,0.4,0.8,0.8,0.8h4.7c0.9,0,1.6-0.7,1.6-1.6
	v-8.1c0-0.1,0-0.2-0.1-0.3L55.9,71.5z"/>
<path class="st3" d="M67.3,78.5L63.6,75v-5.4c0-0.4-0.4-0.8-0.8-0.8h-2.4c-0.4,0-0.8,0.4-0.8,0.8v1.6l-2.8-2.7
	c-0.3-0.3-0.7-0.4-1.1-0.4c-0.4,0-0.8,0.2-1.1,0.4L44.3,78.5c-0.3,0.3-0.3,0.8-0.1,1.1c0.1,0.2,0.3,0.3,0.6,0.3
	c0.2,0,0.4-0.1,0.6-0.2l10.2-9.8c0.2-0.1,0.4-0.1,0.5,0l10.2,9.8c0.3,0.3,0.8,0.3,1.1,0C67.7,79.3,67.6,78.8,67.3,78.5z"/>
<g>
	<path class="st2" d="M162.6,85.6v2.2c0,1.2-1,2.2-2.2,2.2h-18.9c-1.9,0-3.5-1.6-3.5-3.5v-15c0-1.9,1.6-3.5,3.5-3.5h16.3
		c0.2,0,0.3,0,0.5,0.1c0.2,0.1,0.3,0.2,0.4,0.3c0.1,0.1,0.2,0.3,0.3,0.4c0.1,0.2,0.1,0.3,0.1,0.5s0,0.3-0.1,0.5
		c-0.1,0.2-0.2,0.3-0.3,0.4c-0.1,0.1-0.3,0.2-0.4,0.3c-0.2,0.1-0.3,0.1-0.5,0.1h-16.3c-0.2,0-0.4,0.1-0.6,0.3s-0.2,0.4-0.2,0.6
		c0,0.2,0.1,0.4,0.2,0.6s0.4,0.3,0.6,0.3h18.9c1.2,0,2.2,1,2.2,2.2v2.2h-4.4c-2.4,0-4.4,2-4.4,4.4c0,2.4,2,4.4,4.4,4.4H162.6z"/>
	<path class="st2" d="M162.6,78.6v5.3h-4.4c-0.7,0-1.4-0.3-1.9-0.8c-0.5-0.5-0.8-1.2-0.8-1.9c0-0.7,0.3-1.4,0.8-1.9
		c0.5-0.5,1.2-0.8,1.9-0.8H162.6z"/>
</g>
<path class="st4" d="M277.7,70.4l2.1,2.1c0.8,0.8,0.8,1.9,0.2,2.8c1.4,2.1,2.9,4.5,3,4.6c0.2,0.3,0.1,0.8-0.2,1
	c-0.3,0.2-0.8,0.1-1-0.2c0,0,0,0,0,0c-0.1-0.2-1.4-2.4-2.7-4.2l-0.2,0.3c-0.9,0.9-2.2,0.9-3.1,0l-2.1-2.1c-0.9-0.9-0.9-2.3,0-3.1
	l0.3-0.3c-2-1.4-4.2-2.8-4.3-2.8c-0.3-0.2-0.5-0.7-0.2-1c0.2-0.3,0.7-0.5,1-0.2c0.1,0.1,2.6,1.6,4.6,3
	C275.8,69.6,277,69.6,277.7,70.4z M275.8,82.4c0,1.2,2.9,2.2,6.6,2.2c3.6,0,6.6-1,6.6-2.2v2.9c0,1.2-3,2.2-6.6,2.2
	c-3.6,0-6.6-1-6.6-2.2V82.4z"/>
<path class="st4" d="M265.2,85.9l-1-1c-0.3-0.3-0.3-0.7,0-1l8.3-8.3c0,0,0,0,0,0c0,0,0,0,0,0l2.1,2.1l-8.3,8.3
	C266,86.2,265.5,86.2,265.2,85.9z M284.1,78.9c0.1,0.1,0.1,0.2,0.1,0.2c0.6,1,0.3,2.4-0.7,3c-1.1,0.6-2.4,0.3-3-0.7
	c-0.2-0.3-0.7-1.2-1.4-2.3c-2,0.4-3.3,1.1-3.3,1.9c0,1.2,3,2.2,6.6,2.2c3.6,0,6.6-1,6.6-2.2C289,80,286.9,79.1,284.1,78.9z
	 M282.4,89c-3.6,0-6.6-1-6.6-2.2v2.9c0,1.2,2.9,2.2,6.6,2.2c3.6,0,6.6-1,6.6-2.2v-2.9C289,88,286,89,282.4,89z"/>
<path class="st4" d="M365.8,76.6c-0.3,0.4-0.6,0.7-1,0.9c-0.4,0.2-0.9,0.3-1.3,0.3c-0.5,0-0.9-0.1-1.3-0.3c-0.4-0.2-0.8-0.5-1-0.9
	c-0.3-0.4-0.4-0.8-0.5-1.2c-0.1-0.4,0-0.9,0.1-1.3c0.1-0.4,0.4-0.8,0.7-1.1c0.3-0.3,0.7-0.6,1.2-0.7c0.4-0.1,0.9-0.2,1.3-0.1
	c0.4,0.1,0.9,0.3,1.2,0.5c-0.1,0.4-0.2,0.8-0.2,1.2C365,74.9,365.3,75.8,365.8,76.6z M365.6,78.9c-1,0.9-1.7,2.2-1.9,3.5l-0.4,2.7
	c-3.1,0-4-1.1-4.2-1.4c-0.1-0.1-0.1-0.2-0.1-0.3c0-0.1,0-0.2,0-0.3l0.2-1.3c0.1-0.7,0.4-1.3,0.8-1.9s1-1,1.6-1.3
	c0.6-0.3,1.3-0.4,2-0.4C364.3,78.4,365,78.6,365.6,78.9z M375.6,82.6c-0.2-1.2-0.8-2.3-1.7-3c-0.9-0.8-2-1.2-3.2-1.2h-1.1
	c-1.2,0-2.3,0.4-3.2,1.2c-0.9,0.8-1.5,1.9-1.7,3l-0.5,3.7c0,0.1,0,0.2,0,0.4c0,0.1,0.1,0.2,0.2,0.3c0.2,0.2,1.5,1.3,5.8,1.3
	c4.3,0,5.5-1.1,5.8-1.3c0.1-0.1,0.2-0.2,0.2-0.3c0-0.1,0.1-0.2,0-0.4L375.6,82.6z M381.4,83.5c0-0.1,0-0.2,0-0.3l-0.2-1.3
	c-0.1-0.7-0.4-1.3-0.8-1.9c-0.4-0.5-1-1-1.6-1.3c-0.6-0.3-1.3-0.4-2-0.4c-0.7,0-1.4,0.2-1.9,0.6c1,0.9,1.7,2.2,1.9,3.5l0.4,2.7
	c3.1,0,4-1.1,4.2-1.4C381.3,83.6,381.4,83.6,381.4,83.5z M379.6,76c0.1-0.3,0.2-0.7,0.2-1.1c0-0.5-0.1-1.1-0.4-1.5
	c-0.3-0.5-0.7-0.8-1.2-1.1c-0.5-0.2-1-0.3-1.5-0.3c-0.5,0-1,0.2-1.5,0.6c0.1,0.4,0.2,0.8,0.2,1.2c0,1-0.3,1.9-0.8,2.7
	c0.3,0.4,0.6,0.7,1,0.9c0.4,0.2,0.9,0.3,1.3,0.3c0.4,0,0.7-0.1,1.1-0.2c0.3-0.1,0.7-0.4,0.9-0.6C379.3,76.7,379.5,76.4,379.6,76z"/>
<path class="st3" d="M370.2,77.8c2.2,0,3.9-1.7,3.9-3.9c0-2.2-1.7-3.9-3.9-3.9c-2.2,0-3.9,1.7-3.9,3.9
	C366.3,76.1,368,77.8,370.2,77.8z"/>
</svg>
