<svg width="99" height="95" viewBox="0 0 99 95" fill="none" xmlns="http://www.w3.org/2000/svg">
<g style="mix-blend-mode:color-burn">
<path d="M77.0024 36.1924V94.416H63.6003V45.5684C68.2539 42.6717 72.7283 39.5369 77.0024 36.1924Z" fill="url(#paint0_linear_44_36)"/>
<path d="M98.2043 15.9825V94.4207H84.8022V29.6463C89.5823 25.3538 94.0566 20.7801 98.2043 15.9825Z" fill="url(#paint1_linear_44_36)"/>
<path d="M55.8058 50.1229V94.4207H42.4038V56.6213C46.9888 54.6585 51.4579 52.486 55.8058 50.1182V50.1229Z" fill="url(#paint2_linear_44_36)"/>
<path d="M34.6039 59.7181V94.4207H21.2018V63.9821C25.7395 62.7577 30.2138 61.3332 34.6039 59.7229V59.7181Z" fill="url(#paint3_linear_44_36)"/>
<path d="M13.402 65.8592V94.4208H0V68.0174C4.51126 67.5601 8.98036 66.8025 13.402 65.8592Z" fill="url(#paint4_linear_44_36)"/>
</g>
<path d="M99 9.51332C98.5218 7.15041 98.0383 4.78271 97.5601 2.4198C96.7456 -0.541023 98.0436 -0.163148 94.6804 0.358224C92.8359 0.669134 90.9914 0.980044 89.1417 1.29095C88.5426 1.3914 87.9383 1.49185 87.3392 1.5923C86.9714 1.6784 86.5247 1.61143 86.3618 1.98452C85.3528 3.31904 84.3439 4.65356 83.3402 5.9833C83.2035 6.16506 83.0669 6.34683 82.9303 6.52859C83.2981 6.46641 83.666 6.40423 84.0338 6.34204C85.2162 6.14115 86.3986 5.94504 87.5809 5.74414C88.4322 5.60064 89.2888 5.45715 90.1401 5.31365C86.057 11.2018 79.2623 17.9414 73.3715 23.3751C53.329 41.2309 28.1945 54.6096 1 61C27.2223 57.1208 65.2 38.4566 85.831 16.2912C88.6477 13.7369 91.6588 9.58507 93.9973 7.5809C94.1181 8.1788 94.239 8.77671 94.3599 9.37461C94.6279 10.6948 94.8959 12.0197 95.1639 13.3399C95.3951 14.6744 95.3163 14.3109 96.0309 13.4356C97.0189 12.1298 98.0068 10.8191 99 9.50854V9.51332Z" fill="url(#paint5_linear_44_36)"/>
<defs>
<linearGradient id="paint0_linear_44_36" x1="60.4172" y1="14.4008" x2="71.1872" y2="82.2475" gradientUnits="userSpaceOnUse">
<stop stop-color="#1A1A1A"/>
<stop offset="0.09" stop-color="#222222"/>
<stop offset="0.24" stop-color="#3B3B3B"/>
<stop offset="0.43" stop-color="#626262"/>
<stop offset="0.65" stop-color="#999999"/>
<stop offset="0.89" stop-color="#DEDEDE"/>
<stop offset="1" stop-color="white"/>
</linearGradient>
<linearGradient id="paint1_linear_44_36" x1="82.8944" y1="10.8372" x2="93.6601" y2="78.6836" gradientUnits="userSpaceOnUse">
<stop stop-color="#1A1A1A"/>
<stop offset="0.09" stop-color="#222222"/>
<stop offset="0.24" stop-color="#3B3B3B"/>
<stop offset="0.43" stop-color="#626262"/>
<stop offset="0.65" stop-color="#999999"/>
<stop offset="0.89" stop-color="#DEDEDE"/>
<stop offset="1" stop-color="white"/>
</linearGradient>
<linearGradient id="paint2_linear_44_36" x1="38.5408" y1="17.8739" x2="49.3108" y2="85.7206" gradientUnits="userSpaceOnUse">
<stop stop-color="#1A1A1A"/>
<stop offset="0.09" stop-color="#222222"/>
<stop offset="0.24" stop-color="#3B3B3B"/>
<stop offset="0.43" stop-color="#626262"/>
<stop offset="0.65" stop-color="#999999"/>
<stop offset="0.89" stop-color="#DEDEDE"/>
<stop offset="1" stop-color="white"/>
</linearGradient>
<linearGradient id="paint3_linear_44_36" x1="17.07" y1="21.2803" x2="27.8357" y2="89.1267" gradientUnits="userSpaceOnUse">
<stop stop-color="#53EEFF"/>
<stop offset="0.09" stop-color="#222222"/>
<stop offset="0.24" stop-color="#3B3B3B"/>
<stop offset="0.43" stop-color="#626262"/>
<stop offset="0.65" stop-color="#999999"/>
<stop offset="0.89" stop-color="#DEDEDE"/>
<stop offset="1" stop-color="white"/>
</linearGradient>
<linearGradient id="paint4_linear_44_36" x1="-4.0791" y1="24.6391" x2="6.68656" y2="92.4855" gradientUnits="userSpaceOnUse">
<stop offset="0.65" stop-color="#999999"/>
<stop offset="0.89" stop-color="#DEDEDE"/>
<stop offset="1" stop-color="white"/>
</linearGradient>
<linearGradient id="paint5_linear_44_36" x1="48.6416" y1="-21.5537" x2="51.3368" y2="114.698" gradientUnits="userSpaceOnUse">
<stop stop-color="#3DECFF"/>
<stop offset="0.951" stop-color="#E7F87B"/>
</linearGradient>
</defs>
</svg>
